# xmcd CD database file
#
# Track frame offsets:
#	150
#	14958
#	28662
#	48119
#	65095
#	90490
#	98841
#	123824
#	137332
#	148345
#	160596
#	178836
#
# Disc length: 2654 seconds
#
# Revision: 0
# Processed by: cddbd v1.5.1PL0 Copyright (c) Steve Scherf et al.
# Submitted via: CDex 1.51
#
DISCID=a10a5c0c
DTITLE=Gadjo Swing - Gadjo Swing
DYEAR=2004
DGENRE=Jazz
TTITLE0=Les Yeux Noirs
TTITLE1=Minor Swing
TTITLE2=Caravan
TTITLE3=Bossa Dorado
TTITLE4=Blue Drag
TTITLE5=Belleville
TTITLE6=Bolero
TTITLE7=Indifference
TTITLE8=A,D,B
TTITLE9=Softly
TTITLE10=Sweet Georgia Brown
TTITLE11=All Of Me
EXTD=YEAR: 2004
EXTT0=
EXTT1=
EXTT2=
EXTT3=
EXTT4=
EXTT5=
EXTT6=
EXTT7=
EXTT8=
EXTT9=
EXTT10=
EXTT11=
PLAYORDER=
